<svg width="110" height="16" viewBox="0 0 110 16" fill="none" xmlns="http://www.w3.org/2000/svg">
<path fill-rule="evenodd" clip-rule="evenodd" d="M31.9689 9.7575C31.6524 10.125 31.2146 10.3087 30.6555 10.3087C30.1228 10.3087 29.6883 10.1011 29.352 9.68577C29.0157 9.27047 28.8476 8.72681 28.8476 8.05479V7.99816C28.8476 7.32614 29.0151 6.78499 29.35 6.37473C29.685 5.96447 30.1228 5.75934 30.6634 5.75934C31.2014 5.75934 31.6274 5.93553 31.9412 6.2879V4H32.7285V10.2294H32.0045L31.9689 9.7575ZM0.81494 10.2295V7.91898H2.27076C2.97229 7.91898 3.51031 7.76419 3.88481 7.45461C4.25932 7.14503 4.44657 6.7033 4.44657 6.12944C4.44657 5.58578 4.2547 5.14909 3.87097 4.81937C3.48723 4.48965 2.95647 4.32479 2.27867 4.32479H0V10.2295H0.81494ZM2.27818 7.28079H0.814453V4.96646H2.32565C2.7318 4.97401 3.05092 5.08287 3.28301 5.29303C3.5151 5.5032 3.63114 5.78447 3.63114 6.13684C3.63114 6.50683 3.5151 6.78998 3.28301 6.98631C3.05092 7.18263 2.71598 7.28079 2.27818 7.28079ZM8.35169 10.0256C8.03257 10.2143 7.66598 10.3087 7.25191 10.3087C6.6295 10.3087 6.12511 10.1023 5.73874 9.68954C5.35237 9.27677 5.15918 8.72933 5.15918 8.04724V7.99438C5.15918 7.56399 5.24753 7.17701 5.42423 6.83345C5.60093 6.48988 5.84753 6.22498 6.16401 6.03872C6.48049 5.85247 6.84049 5.75934 7.244 5.75934C7.87169 5.75934 8.37872 5.96636 8.76509 6.3804C9.15146 6.79443 9.34465 7.34501 9.34465 8.03214V8.08499C9.34465 8.51036 9.25893 8.89293 9.08751 9.23272C8.91608 9.57251 8.67081 9.83678 8.35169 10.0256ZM7.25075 9.69704C6.85515 9.69704 6.53933 9.5498 6.30328 9.25532C6.06724 8.96084 5.94922 8.57071 5.94922 8.08494C5.94922 7.53625 6.0679 7.11403 6.30526 6.81829C6.54262 6.52255 6.85515 6.37468 7.24284 6.37468C7.64108 6.37468 7.95954 6.52444 8.19822 6.82395C8.4369 7.12347 8.55624 7.5136 8.55624 7.99433C8.55624 8.53296 8.43887 8.9514 8.20415 9.24966C7.96943 9.54791 7.65163 9.69704 7.25075 9.69704ZM12.9799 6.90318L11.892 10.2293H11.2511L9.91797 5.84229H10.7013L11.6072 9.12689L12.6753 5.84229H13.3083L14.4001 9.19485L15.2863 5.84229H16.0735L14.7324 10.2293H14.0955L12.9799 6.90318ZM18.7795 10.3087C19.5496 10.3087 20.1271 10.0268 20.5122 9.46302L20.0335 9.10435C19.8885 9.28306 19.7197 9.42652 19.5271 9.53475C19.3346 9.64298 19.0986 9.69709 18.819 9.69709C18.4287 9.69709 18.1069 9.56433 17.8537 9.29879C17.6006 9.03325 17.4687 8.68403 17.4581 8.25111H20.5715V7.93775C20.5715 7.23804 20.406 6.70005 20.0751 6.32377C19.7441 5.94748 19.2792 5.75934 18.6806 5.75934C18.314 5.75934 17.9744 5.85624 17.6619 6.05005C17.3494 6.24385 17.1061 6.51191 16.932 6.85421C16.7579 7.19651 16.6709 7.58538 16.6709 8.02081V8.15673C16.6709 8.81113 16.8661 9.3334 17.2564 9.72352C17.6467 10.1136 18.1544 10.3087 18.7795 10.3087ZM17.4814 7.63189H19.7838V7.57526C19.7628 7.1952 19.6559 6.90009 19.4634 6.68993C19.2709 6.47976 19.0098 6.37468 18.6801 6.37468C18.3636 6.37468 18.0973 6.48543 17.881 6.70692C17.6647 6.92841 17.5316 7.23673 17.4814 7.63189ZM22.2677 10.2294V7.11471C22.4523 6.69439 22.8018 6.48422 23.3161 6.48422C23.4558 6.48422 23.5851 6.49429 23.7038 6.51442V5.81597C23.6246 5.77822 23.5086 5.75934 23.3556 5.75934C22.8835 5.75934 22.5183 5.95566 22.2598 6.34831L22.2479 5.8424H21.4805V10.2294H22.2677ZM28.0679 9.46302C27.6828 10.0268 27.1052 10.3087 26.3351 10.3087C25.7101 10.3087 25.2024 10.1136 24.8121 9.72352C24.4217 9.3334 24.2266 8.81113 24.2266 8.15673V8.02081C24.2266 7.58538 24.3136 7.19651 24.4877 6.85421C24.6617 6.51191 24.905 6.24385 25.2175 6.05005C25.5301 5.85624 25.8696 5.75934 26.2362 5.75934C26.8349 5.75934 27.2997 5.94748 27.6307 6.32377C27.9617 6.70005 28.1272 7.23804 28.1272 7.93775V8.25111H25.0138C25.0244 8.68403 25.1562 9.03325 25.4094 9.29879C25.6626 9.56433 25.9844 9.69709 26.3747 9.69709C26.6542 9.69709 26.8903 9.64298 27.0828 9.53475C27.2753 9.42652 27.4441 9.28306 27.5892 9.10435L28.0679 9.46302ZM27.3405 7.63189H25.0381C25.0882 7.23673 25.2214 6.92841 25.4376 6.70692C25.6539 6.48543 25.9203 6.37468 26.2368 6.37468C26.5664 6.37468 26.8275 6.47976 27.0201 6.68993C27.2126 6.90009 27.3194 7.1952 27.3405 7.57526V7.63189ZM30.8493 9.67434C30.4695 9.67434 30.1721 9.53339 29.9572 9.25149C29.7422 8.96959 29.6348 8.58073 29.6348 8.08489C29.6348 7.52613 29.7422 7.10517 29.9572 6.82201C30.1721 6.53886 30.4721 6.39728 30.8572 6.39728C31.3451 6.39728 31.7064 6.60367 31.9411 7.01645V9.03252C31.7117 9.4604 31.3477 9.67434 30.8493 9.67434ZM40.1074 9.69898C39.7844 10.1055 39.3512 10.3087 38.8079 10.3087C38.2277 10.3087 37.7793 10.1136 37.4628 9.72352L37.4233 10.2294H36.6993V4H37.4866V6.32565C37.8031 5.94811 38.2409 5.75934 38.8 5.75934C39.3591 5.75934 39.7976 5.9607 40.1154 6.36341C40.4332 6.76612 40.5921 7.31859 40.5921 8.02081V8.08499C40.5921 8.7545 40.4305 9.2925 40.1074 9.69898ZM38.6148 9.67434C38.1031 9.67434 37.7273 9.44404 37.4873 8.98344V7.08441C37.7141 6.62632 38.0873 6.39728 38.6069 6.39728C38.9945 6.39728 39.2919 6.53634 39.4989 6.81446C39.706 7.09259 39.8095 7.48712 39.8095 7.99805C39.8095 8.55933 39.7047 8.97903 39.495 9.25715C39.2853 9.53528 38.9919 9.67434 38.6148 9.67434ZM43.152 10.9051C42.8645 11.635 42.4096 12 41.7872 12L41.6369 11.9887L41.3441 11.9358V11.328L41.5577 11.3431C41.8241 11.3431 42.0318 11.2921 42.1808 11.1902C42.3298 11.0882 42.4518 10.9001 42.5467 10.6257L42.7208 10.1802L41.083 5.84229H41.9415L43.0887 9.13067L44.1568 5.84229H44.9995L43.152 10.9051Z" fill="#A1A3A8"/>
<path fill-rule="evenodd" clip-rule="evenodd" d="M67.3267 4.29412H64.0442C62.2313 4.29412 60.7617 5.76894 60.7617 7.58824V8.41177C60.7617 10.2311 62.2313 11.7059 64.0442 11.7059H68.968V1H67.3267V4.29412ZM67.3267 10.0588H64.0442C63.1378 10.0588 62.403 9.32141 62.403 8.41177V7.58824C62.403 6.67859 63.1378 5.94118 64.0442 5.94118H67.3267V10.0588Z" fill="#0040FF"/>
<path d="M69.7887 4.29412H71.4299V11.7059H69.7887V4.29412Z" fill="#0040FF"/>
<path fill-rule="evenodd" clip-rule="evenodd" d="M72.2507 8.41177V7.58824C72.2507 5.76894 73.7203 4.29412 75.5332 4.29412H80.457V11.7059C80.457 13.5252 78.9873 15 77.1744 15H75.5332L74.61 13.3529H77.1744C78.0809 13.3529 78.8157 12.6155 78.8157 11.7059H75.5332C73.7203 11.7059 72.2507 10.2311 72.2507 8.41177ZM75.5331 10.0588H78.8156V5.94118H75.5331C74.6267 5.94118 73.8918 6.67859 73.8918 7.58824V8.41177C73.8918 9.32141 74.6267 10.0588 75.5331 10.0588Z" fill="#0040FF"/>
<path d="M108.358 4.29412V10.0588H105.076C104.169 10.0588 103.434 9.32141 103.434 8.41177V4.29412H101.793V8.41177C101.793 10.2311 103.263 11.7059 105.076 11.7059H108.358C108.358 12.6155 107.623 13.3529 106.717 13.3529H104.152L105.076 15H106.717C108.53 15 109.999 13.5252 109.999 11.7059V4.29412H108.358Z" fill="#0040FF"/>
<path fill-rule="evenodd" clip-rule="evenodd" d="M92.7661 7.58824V8.41177C92.7661 10.2311 94.2357 11.7059 96.0486 11.7059H100.972V4.29412H96.0486C94.2357 4.29412 92.7661 5.76894 92.7661 7.58824ZM99.331 10.0588H96.0485C95.142 10.0588 94.4072 9.32141 94.4072 8.41177V7.58824C94.4072 6.67859 95.142 5.94118 96.0485 5.94118H99.331V10.0588Z" fill="#0040FF"/>
<path fill-rule="evenodd" clip-rule="evenodd" d="M83.7391 4.29412H88.6629C90.4758 4.29412 91.9454 5.76894 91.9454 7.58824V8.41177C91.9454 10.2311 90.4758 11.7059 88.6629 11.7059H85.3804V15H83.7391V4.29412ZM88.663 10.0588C89.5694 10.0588 90.3042 9.32141 90.3042 8.41177V7.58824C90.3042 6.67859 89.5694 5.94118 88.663 5.94118H85.3805V10.0588H88.663Z" fill="#0040FF"/>
<path d="M71.4299 1H69.7887V2.64706H71.4299V1Z" fill="#0040FF"/>
<path d="M81.2774 4.29412H82.9186V11.7059H81.2774V4.29412Z" fill="#0040FF"/>
<path d="M82.9186 1H81.2774V2.64706H82.9186V1Z" fill="#0040FF"/>
<path d="M58.3004 6.18521V7.22225C58.3004 8.90141 56.9748 10.2699 55.3165 10.3312L55.2003 10.3334H53.1335V11.8889C53.1335 13.5681 51.8079 14.9365 50.1496 14.9979L50.0334 15H49V9.29632C49 7.61715 50.3256 6.24869 51.9839 6.18735L52.1001 6.18521H58.3004Z" fill="#0040FF"/>
<path d="M55.2003 1C56.9125 1 58.3004 2.39289 58.3004 4.11111V5.14815H52.1001C50.388 5.14815 49 3.75526 49 2.03704V1H55.2003Z" fill="#0040FF"/>
</svg>
