<svg width="54" height="51" viewBox="0 0 54 51" fill="none" xmlns="http://www.w3.org/2000/svg">
<g clip-path="url(#clip0)">
<path d="M41.3664 44.615H40.8466C40.752 44.615 40.6575 44.6947 40.6575 44.8061V49.4237C40.6575 49.5192 40.7363 49.6147 40.8466 49.6147H41.3664C41.4609 49.6147 41.5554 49.5351 41.5554 49.4237V44.8061C41.5554 44.6947 41.4766 44.615 41.3664 44.615Z" fill="#FF6200"/>
<path d="M26.4959 45.9048H25.9918C25.8973 45.9048 25.8028 45.9844 25.8028 46.0958V49.4236C25.8028 49.5192 25.8816 49.6147 25.9918 49.6147H26.5117C26.6062 49.6147 26.7007 49.5351 26.7007 49.4236V46.0958C26.6849 45.9844 26.6062 45.9048 26.4959 45.9048Z" fill="#FF6200"/>
<path d="M26.4959 44.615H25.9918C25.8973 44.615 25.8028 44.6947 25.8028 44.8061V45.2838C25.8028 45.3794 25.8816 45.4749 25.9918 45.4749H26.5117C26.6062 45.4749 26.7007 45.3953 26.7007 45.2838V44.8061C26.6849 44.6947 26.6062 44.615 26.4959 44.615Z" fill="#FF6200"/>
<path d="M32.1826 45.9048H31.6627C31.5682 45.9048 31.4737 45.9844 31.4737 46.0958V49.4236C31.4737 49.5192 31.5525 49.6147 31.6627 49.6147H32.1826C32.2771 49.6147 32.3716 49.5351 32.3716 49.4236V46.0958C32.3716 45.9844 32.2771 45.9048 32.1826 45.9048Z" fill="#FF6200"/>
<path d="M32.1826 44.615H31.6627C31.5682 44.615 31.4737 44.6947 31.4737 44.8061V45.2838C31.4737 45.3794 31.5525 45.4749 31.6627 45.4749H32.1826C32.2771 45.4749 32.3716 45.3953 32.3716 45.2838V44.8061C32.3716 44.6947 32.2771 44.615 32.1826 44.615Z" fill="#FF6200"/>
<path d="M34.8447 47.7518L36.1364 46.1277C36.2152 46.0322 36.1522 45.9048 36.0262 45.9048H35.2858C35.2228 45.9048 35.1755 45.9366 35.144 45.9685L33.8366 47.5926V44.7902C33.8366 44.6947 33.7578 44.5991 33.6475 44.5991H33.1277C33.0332 44.5991 32.9387 44.6787 32.9387 44.7902V49.4077C32.9387 49.5033 33.0174 49.5988 33.1277 49.5988H33.6475C33.742 49.5988 33.8366 49.5192 33.8366 49.4077V47.8792L35.144 49.5192C35.1755 49.567 35.2385 49.5829 35.2858 49.5829H36.0262C36.1364 49.5829 36.1994 49.4555 36.1364 49.36L34.8447 47.7518Z" fill="#FF6200"/>
<path d="M25.0151 44.615H24.448C24.3535 44.615 24.259 44.6947 24.259 44.8061V45.9207H22.8885C22.1482 45.9207 21.5496 46.5258 21.5496 47.2741V48.2454C21.5496 48.9938 22.1482 49.5988 22.8885 49.5988H23.8022C23.9125 49.5988 24.007 49.5511 24.07 49.4714L24.259 49.2326V49.4237C24.259 49.5192 24.3378 49.6147 24.448 49.6147H25.0151C25.1097 49.6147 25.2042 49.5351 25.2042 49.4237V44.8061C25.2042 44.6947 25.1254 44.615 25.0151 44.615ZM24.2748 48.6594H22.9358C22.6995 48.6594 22.5105 48.4683 22.5105 48.2295V47.29C22.5105 47.0512 22.6995 46.8601 22.9358 46.8601H24.2748V48.6594Z" fill="#FF6200"/>
<path d="M30.7019 45.9048H30.1348C30.0403 45.9048 29.9458 45.9844 29.9458 46.0958V46.2869L29.7568 46.0321C29.6937 45.9525 29.5992 45.9048 29.489 45.9048H28.5753C27.8349 45.9048 27.2363 46.5098 27.2363 47.2582V48.2294C27.2363 48.9778 27.8349 49.5829 28.5753 49.5829H29.9458V49.6466C29.9458 49.8854 29.7568 50.0765 29.5205 50.0765H28.276C28.1657 50.0765 28.1027 50.2038 28.1657 50.2994L28.5753 50.8407C28.6383 50.9204 28.7328 50.9841 28.8431 50.9841H29.552C30.2923 50.9841 30.8909 50.379 30.8909 49.6306V49.6147V46.0799C30.8909 45.9844 30.7964 45.9048 30.7019 45.9048ZM29.9458 48.7071H28.6068C28.3705 48.7071 28.1815 48.5161 28.1815 48.2772V47.29C28.1815 47.0512 28.3705 46.8601 28.6068 46.8601H29.9458V48.7071Z" fill="#FF6200"/>
<path d="M45.5093 45.9048H43.43C42.6896 45.9048 42.091 46.5098 42.091 47.2582V48.2294C42.091 48.9778 42.6896 49.5829 43.43 49.5829H44.3594C44.4697 49.5829 44.5642 49.5351 44.6272 49.4396L44.8005 49.2007V49.3918C44.8005 49.4873 44.8792 49.5829 44.9895 49.5829H45.5093C45.6039 49.5829 45.6984 49.5032 45.6984 49.3918V46.064C45.6984 45.9844 45.6196 45.9048 45.5093 45.9048ZM44.8162 48.7071H43.4142C43.1779 48.7071 42.9889 48.5161 42.9889 48.2772V47.29C42.9889 47.0512 43.1779 46.8601 43.4142 46.8601H44.8162V48.7071Z" fill="#FF6200"/>
<path d="M39.8384 45.9048H37.759C37.0186 45.9048 36.42 46.5098 36.42 47.2582V48.2294C36.42 48.9778 37.0186 49.5829 37.759 49.5829H38.6884C38.7987 49.5829 38.8932 49.5351 38.9562 49.4396L39.1295 49.2007V49.3918C39.1295 49.4873 39.2083 49.5829 39.3185 49.5829H39.8384C39.9329 49.5829 40.0274 49.5032 40.0274 49.3918V46.064C40.0274 45.9844 39.9329 45.9048 39.8384 45.9048ZM39.1295 48.7071H37.7275C37.4912 48.7071 37.3022 48.5161 37.3022 48.2772V47.29C37.3022 47.0512 37.4912 46.8601 37.7275 46.8601H39.1295V48.7071Z" fill="#FF6200"/>
<path d="M15.2643 46.0162H15.8156V47.306H15.8314C15.8629 47.2423 15.9101 47.1945 15.9732 47.1467C16.0204 47.099 16.0834 47.0512 16.1464 47.0194C16.2094 46.9875 16.2882 46.9557 16.3512 46.9397C16.43 46.9238 16.493 46.9079 16.5718 46.9079C16.7608 46.9079 16.9341 46.9397 17.0916 47.0194C17.2334 47.083 17.3594 47.1786 17.4539 47.306C17.5484 47.4333 17.6272 47.5766 17.6744 47.7359C17.7217 47.8951 17.7532 48.0702 17.7532 48.2613C17.7532 48.4365 17.7375 48.5957 17.6902 48.7549C17.6429 48.9141 17.5799 49.0574 17.4854 49.1689C17.3909 49.2963 17.2806 49.3918 17.1546 49.4555C17.0128 49.5351 16.8553 49.567 16.682 49.567C16.6033 49.567 16.5087 49.567 16.43 49.551C16.3512 49.5351 16.2567 49.5192 16.1937 49.4873C16.1149 49.4555 16.0519 49.4077 15.9889 49.36C15.9259 49.3122 15.8786 49.2326 15.8314 49.153H15.8156V49.5033H15.2958V46.0162H15.2643ZM17.1861 48.2454C17.1861 48.1339 17.1704 48.0225 17.1389 47.911C17.1073 47.7996 17.0601 47.704 17.0128 47.6244C16.9498 47.5448 16.8868 47.4811 16.7923 47.4174C16.6978 47.3696 16.6033 47.3378 16.493 47.3378C16.2567 47.3378 16.0834 47.4174 15.9732 47.5766C15.8629 47.7359 15.7999 47.9588 15.7999 48.2295C15.7999 48.3568 15.8156 48.4683 15.8471 48.5798C15.8786 48.6912 15.9259 48.7868 15.9889 48.8664C16.0519 48.946 16.1307 49.0097 16.2094 49.0574C16.2882 49.1052 16.3985 49.1211 16.5087 49.1211C16.6348 49.1211 16.745 49.0893 16.8238 49.0415C16.9183 48.9937 16.9813 48.9141 17.0443 48.8345C17.1073 48.7549 17.1389 48.6594 17.1704 48.5479C17.1861 48.4683 17.1861 48.3568 17.1861 48.2454Z" fill="#FF6200"/>
<path d="M17.9265 46.9875H18.5251L19.171 48.8663H19.1867L19.8168 46.9875H20.3839L19.4073 49.6465C19.36 49.758 19.3127 49.8695 19.2812 49.9809C19.234 50.0924 19.1867 50.172 19.1237 50.2516C19.0607 50.3312 18.9819 50.3949 18.8874 50.4427C18.7929 50.4904 18.6826 50.5064 18.5251 50.5064C18.3991 50.5064 18.2731 50.4904 18.147 50.4745V50.0128C18.1943 50.0128 18.2416 50.0287 18.2731 50.0287C18.3203 50.0446 18.3518 50.0446 18.3991 50.0446C18.4621 50.0446 18.5094 50.0287 18.5566 50.0128C18.6039 49.9968 18.6354 49.965 18.6669 49.9491C18.6984 49.9172 18.7141 49.8854 18.7299 49.8376C18.7457 49.7898 18.7614 49.7421 18.7772 49.6943L18.8402 49.5032L17.9265 46.9875Z" fill="#FF6200"/>
<path d="M16.4418 4.97456C17.1034 4.97456 17.6075 5.59554 17.4658 6.26429L16.7569 9.40103C16.6466 9.87871 16.2213 10.229 15.733 10.229H11.527C10.8654 10.229 10.3613 9.60803 10.5031 8.93928L11.1962 5.80253C11.3065 5.32485 11.7318 4.97456 12.2201 4.97456H16.4418ZM10.4401 13.8275C9.95175 13.8275 9.52643 14.1778 9.41617 14.6714L5.54102 33.7307C5.54102 33.7626 5.52527 33.7785 5.52527 33.7944C5.44651 34.081 5.35199 34.4632 5.27323 34.909C5.17871 35.3708 5.05269 35.8325 4.87941 36.2783C4.70613 36.7242 4.4856 37.1063 4.2178 37.4248C3.95001 37.7432 3.5877 37.9024 3.14662 37.9024C2.76856 37.9024 2.3905 37.9024 2.01243 37.8865C1.93367 37.8865 1.85491 37.8865 1.76039 37.8706C1.24056 37.8388 0.799482 38.205 0.689214 38.6986L0.0433566 41.7716C-0.0826644 42.3926 0.342656 42.9658 0.957009 43.0295C1.08303 43.0454 1.20905 43.0614 1.33507 43.0773C1.85491 43.141 2.35899 43.1728 2.86308 43.1728C4.28081 43.1728 5.47801 43.0295 6.42317 42.727C7.36832 42.4245 8.17171 41.9786 8.83332 41.3736C9.47918 40.7685 9.99901 40.0042 10.3928 39.0807C10.7866 38.1572 11.1017 37.0745 11.3695 35.8484L15.6542 15.1013C15.796 14.4485 15.2919 13.8275 14.6303 13.8275H10.4401ZM23.184 21.55C22.8374 22.155 22.5539 22.776 22.3176 23.4447H32.3992C32.3992 21.7251 32.0684 19.7348 30.3514 18.9227C27.7365 17.7604 24.5229 18.9387 23.184 21.55ZM45.0959 8.73228C45.7575 5.77069 48.7347 1.37605 49.6169 0.102249C49.7271 -0.0410543 49.9477 -0.00920919 49.9949 0.165939C50.4202 1.53528 51.6962 5.96176 51.2866 8.73228C50.9716 10.2449 50.9243 10.7863 50.5778 12.5855L49.4121 18.2381C48.5299 22.8078 46.8129 32.027 46.3403 33.3964C45.1904 36.8197 41.6933 38.1731 38.401 38.1254C34.2108 38.0298 27.0749 38.189 25.7516 38.1572C24.2079 38.1572 22.8059 37.9502 21.5457 37.5203C15.4494 35.6414 14.5043 28.0623 16.4418 22.6645C18.7575 15.5631 25.1373 12.1079 32.1472 14.3052C36.3374 15.5631 38.5743 19.4482 38.4955 23.8428C38.3537 24.8459 38.7948 27.4572 37.251 27.4891H21.6559C21.1991 30.9761 22.8531 33.476 26.681 33.3804C27.1536 33.3804 33.6279 33.3486 38.6373 33.3327C39.5352 33.1575 40.181 32.5684 40.5433 31.6449C40.6694 31.2946 42.3549 22.2506 43.1898 18.1425L40.7796 18.2062C40.118 18.2221 39.7715 17.426 40.2125 16.9483L44.4185 12.3149C44.7966 10.4678 44.8438 9.97425 45.0959 8.73228ZM50.3415 18.3336L53.0194 18.3495C53.7755 18.3495 54.2481 17.5215 53.8701 16.8687L51.4914 12.697L50.3415 18.3336Z" fill="#FF6200"/>
</g>
<defs>
<clipPath id="clip0">
<rect width="54" height="51" fill="white"/>
</clipPath>
</defs>
</svg>
