<svg width="232" height="56" viewBox="0 0 232 56" fill="none" xmlns="http://www.w3.org/2000/svg">
    <g clip-path="url(#clip0)">
        <path fill-rule="evenodd" clip-rule="evenodd" d="M227.252 11.7081C227.136 12.1473 226.883 13.2407 226.554 14.6643C226.324 15.6628 226.055 16.8237 225.77 18.0355L221.277 39.6084C220.931 41.2027 220.536 42.5479 220.042 43.7436C219.548 44.9394 218.906 45.9358 218.067 46.6831C217.227 47.4803 216.24 48.0283 215.005 48.4269C213.77 48.8255 212.289 49.0248 210.462 49.0248C209.961 49.0248 209.502 48.9824 209.007 48.9367L208.882 48.9251C205.574 48.8966 201.618 48.9497 198.545 48.991C196.25 49.0219 194.446 49.0461 193.77 49.0248C191.647 49.0248 189.721 48.7757 187.993 48.1778C179.598 45.6369 178.264 35.2241 180.931 27.8504C184.091 18.1351 192.832 13.4518 202.462 16.4412C208.19 18.1849 211.252 23.4661 211.153 29.4945C211.122 29.7807 211.124 30.1684 211.126 30.602C211.134 32.206 211.146 34.4375 209.474 34.4767H188.091C187.45 39.2597 189.721 42.6476 194.956 42.5479C195.234 42.5479 199.239 42.4957 203.148 42.4447C206.876 42.3961 210.517 42.3486 210.758 42.3486C211.351 42.3486 211.795 42.1493 212.141 41.7508C212.487 41.3522 212.733 40.9038 212.98 40.3059C213.178 39.7579 213.375 39.16 213.474 38.5621C213.575 38.1877 213.654 37.8597 213.724 37.5624C213.757 37.4246 213.789 37.2934 213.82 37.1671V37.0675L214.956 31.6369H214.906C215.168 30.3398 215.419 29.0312 215.652 27.8115C215.903 26.5012 216.134 25.2936 216.338 24.313L213.129 24.4127C212.289 24.4127 211.795 23.3664 212.388 22.7187L218.067 16.5408C218.325 15.236 218.462 14.4369 218.583 13.7283C218.694 13.0841 218.791 12.5147 218.956 11.7081C219.845 7.72229 223.845 1.84329 225.03 0.149337C225.129 -0.0499513 225.474 -0.000129234 225.524 0.248981C226.017 1.89311 227.4 6.72585 227.351 10.4127V10.6618C227.351 11.0104 227.301 11.3594 227.252 11.7081ZM199.943 22.8184C196.338 21.2241 191.943 22.8184 190.116 26.4056C189.672 27.2525 189.277 28.0995 188.931 28.9963H202.758C202.758 26.6547 202.264 23.9145 199.943 22.8184Z" fill="#FF6200"/>
        <path d="M174.165 10.961H179.943C180.635 10.961 181.178 10.5126 181.326 9.81507L182.314 5.48055C182.511 4.58376 181.82 3.73678 180.931 3.73678H175.153C174.462 3.73678 173.919 4.18518 173.77 4.88269L172.832 9.21721C172.585 10.114 173.227 10.961 174.165 10.961Z" fill="#FF6200"/>
        <path d="M93.8696 20.7759L85.6227 31.1389L93.919 41.5018C94.3634 42.0997 93.9683 42.9467 93.2276 42.9467H88.5362C88.1412 42.9467 87.8449 42.7972 87.598 42.4983L79.2029 31.9858V41.7011C79.2029 42.3488 78.6597 42.8969 78.0177 42.8969H74.7091C74.0671 42.8969 73.5239 42.3488 73.5239 41.7011V12.2563C73.5239 11.6086 74.0671 11.0606 74.7091 11.0606H78.0177C78.6597 11.0606 79.2029 11.6086 79.2029 12.2563V30.1424L87.5486 19.7794C87.7955 19.4805 88.1412 19.331 88.4868 19.331H93.1782C93.919 19.331 94.314 20.2278 93.8696 20.7759Z" fill="#FF6200"/>
        <path d="M123.943 11.1103H127.252C127.943 11.1103 128.437 11.6085 128.437 12.2562V41.7508C128.437 42.3985 127.894 42.9466 127.252 42.9466H123.943C123.302 42.9466 122.758 42.3985 122.758 41.7508V12.306C122.758 11.6583 123.302 11.1103 123.943 11.1103Z" fill="#FF6200"/>
        <path d="M28.931 19.3807H32.2396C32.8816 19.3807 33.4248 19.879 33.4248 20.5765V41.7509C33.4248 42.3985 32.8816 42.9466 32.2396 42.9466H28.931C28.289 42.9466 27.7458 42.3985 27.7458 41.7509V20.5765C27.7458 19.9288 28.289 19.3807 28.931 19.3807Z" fill="#FF6200"/>
        <path d="M32.2396 11.1103H28.931C28.289 11.1103 27.7458 11.6583 27.7458 12.306V15.3451C27.7458 15.9928 28.289 16.5409 28.931 16.5409H32.2396C32.8816 16.5409 33.4248 15.9928 33.4248 15.3451V12.306C33.4248 11.6085 32.8816 11.1103 32.2396 11.1103Z" fill="#FF6200"/>
        <path d="M65.2275 19.3807H68.5361C69.1781 19.3807 69.7213 19.879 69.7213 20.5765V41.7509C69.7213 42.3985 69.1781 42.9466 68.5361 42.9466H65.2275C64.5855 42.9466 64.0423 42.3985 64.0423 41.7509V20.5765C64.0423 19.9288 64.5855 19.3807 65.2275 19.3807Z" fill="#FF6200"/>
        <path d="M68.5361 11.1103H65.2275C64.5855 11.1103 64.0423 11.6583 64.0423 12.306V15.3451C64.0423 15.9928 64.5855 16.5409 65.2275 16.5409H68.5361C69.1781 16.5409 69.7213 15.9928 69.7213 15.3451V12.306C69.7213 11.6085 69.1781 11.1103 68.5361 11.1103Z" fill="#FF6200"/>
        <path fill-rule="evenodd" clip-rule="evenodd" d="M22.7583 11.1103H19.104C18.462 11.1103 17.9188 11.6583 17.9188 12.306V19.3807H9.17804C4.4373 19.3807 0.585449 23.2668 0.585449 28.0498V34.2775C0.585449 39.0604 4.4373 42.9466 9.17804 42.9466H15.0052C15.6966 42.9466 16.2891 42.6476 16.7336 42.0996L17.9682 40.5053V41.7508C17.9682 42.3985 18.5114 42.9466 19.1533 42.9466H22.8077C23.4496 42.9466 23.9928 42.3985 23.9928 41.7508V12.2562C23.9435 11.6085 23.4003 11.1103 22.7583 11.1103ZM17.9188 36.8683H9.32619C7.79532 36.8683 6.56076 35.6227 6.56076 34.0782V28.1992C6.56076 26.6547 7.79532 25.4092 9.32619 25.4092H17.9188V36.8683Z" fill="#FF6200"/>
        <path fill-rule="evenodd" clip-rule="evenodd" d="M55.4001 19.3807H59.0544C59.7458 19.3807 60.2396 19.9288 60.289 20.5765V43.1957C60.289 47.9786 56.4372 51.8647 51.6964 51.8647H47.2026C46.5112 51.8647 45.8693 51.5658 45.4742 51.0177L42.8569 47.5302C42.4125 46.9822 42.8569 46.1352 43.5483 46.1352H51.4989C53.0297 46.1352 54.2643 44.8896 54.2643 43.3452V42.9466H45.4742C40.7335 42.9466 36.8816 39.0605 36.8816 34.2775V28.0498C36.8816 23.2669 40.7335 19.3807 45.4742 19.3807H51.3013C51.9927 19.3807 52.6347 19.6797 53.0297 20.2277L54.2149 21.822V20.5765C54.2149 19.9288 54.7581 19.3807 55.4001 19.3807ZM45.6717 37.217H54.2643V25.4092H45.6717C44.1409 25.4092 42.9063 26.6548 42.9063 28.1992V34.427C42.9063 35.9715 44.1409 37.217 45.6717 37.217Z" fill="#FF6200"/>
        <path fill-rule="evenodd" clip-rule="evenodd" d="M153.82 19.3807H140.536C135.795 19.3807 131.943 23.2669 131.943 28.0498V34.2775C131.943 39.0605 135.795 42.9466 140.536 42.9466H146.462C147.153 42.9466 147.795 42.5978 148.19 42.0498L149.326 40.5053V41.7509C149.326 42.3985 149.869 42.9466 150.511 42.9466H153.82C154.462 42.9466 155.005 42.3985 155.005 41.7509V20.5765C154.956 19.879 154.462 19.3807 153.82 19.3807ZM149.277 37.217H140.339C138.808 37.217 137.573 35.9715 137.573 34.427V28.1992C137.573 26.6548 138.808 25.4092 140.339 25.4092H149.277V37.217Z" fill="#FF6200"/>
        <path fill-rule="evenodd" clip-rule="evenodd" d="M104.191 19.3807H117.474C118.116 19.3807 118.66 19.879 118.66 20.5765V41.7509C118.66 42.3985 118.116 42.9466 117.474 42.9466H114.166C113.524 42.9466 112.981 42.3985 112.981 41.7509V40.5053L111.845 42.0498C111.45 42.5978 110.808 42.9466 110.116 42.9466H104.191C99.4498 42.9466 95.598 39.0605 95.598 34.2775V28.0498C95.598 23.2669 99.4498 19.3807 104.191 19.3807ZM104.042 37.217H112.981V25.4092H104.042C102.512 25.4092 101.277 26.6548 101.277 28.1992V34.427C101.277 35.9715 102.512 37.217 104.042 37.217Z" fill="#FF6200"/>
        <path d="M172.684 15.8434H178.413C179.302 15.8434 179.993 16.6904 179.795 17.637L173.919 45.9857C173.573 47.6797 173.129 49.1245 172.586 50.4199C172.042 51.7153 171.351 52.7615 170.462 53.5587C169.573 54.3558 168.437 55.0035 167.153 55.4021C165.82 55.8007 164.24 56 162.265 56C161.573 56 160.832 56 160.141 55.9003C160.067 55.9003 159.981 55.8879 159.894 55.8754C159.808 55.863 159.721 55.8505 159.647 55.8505C158.808 55.7509 158.215 54.9537 158.413 54.1067L159.302 49.9217C159.45 49.2242 160.092 48.726 160.783 48.7758H161.129C161.623 48.8256 162.116 48.8256 162.659 48.8256C163.301 48.8256 163.795 48.6263 164.141 48.1779C164.536 47.7295 164.832 47.1815 165.079 46.5836C165.326 45.9359 165.524 45.3381 165.623 44.6904C165.701 44.1786 165.809 43.7602 165.9 43.4105C165.925 43.3176 165.948 43.2296 165.968 43.1459V43.0462L171.302 16.9893C171.4 16.3416 171.993 15.8434 172.684 15.8434Z" fill="#FF6200"/>
        <path d="M231.055 22.8685L227.4 16.3916L225.622 25.1105H229.771C230.857 25.1603 231.598 23.9147 231.055 22.8685Z" fill="#FF6200"/>
    </g>
    <defs>
        <clipPath id="clip0">
            <rect width="230.829" height="56" fill="white" transform="translate(0.585449)"/>
        </clipPath>
    </defs>
</svg>
