<svg width="30" height="22" viewBox="0 0 30 22" fill="none" xmlns="http://www.w3.org/2000/svg">
    <g clip-path="url(#clip0)">
        <path d="M1.08325 18.7269C1.2861 18.7346 1.49284 18.7393 1.70269 18.7393C1.94596 18.7393 2.14104 18.6546 2.28716 18.486C2.43328 18.3175 2.55453 18.1127 2.65168 17.8718C2.74883 17.6316 2.82189 17.3861 2.87086 17.1375C2.91749 16.8973 2.96412 16.6995 3.01153 16.541C3.01542 16.5287 3.01853 16.5171 3.02086 16.504L5.40227 5.19397C5.45745 4.93227 5.69062 4.74447 5.96031 4.74447H8.24846C8.61064 4.74447 8.88111 5.07467 8.80572 5.42489L6.20281 17.6316C6.05669 18.2897 5.87793 18.8678 5.6673 19.3658C5.45667 19.863 5.17221 20.2725 4.81624 20.5942C4.4595 20.916 4.02192 21.1561 3.50274 21.317C2.98355 21.4771 2.33535 21.5579 1.55735 21.5579C1.28144 21.5579 1.00241 21.5418 0.718728 21.5094C0.649555 21.5017 0.58116 21.494 0.511987 21.4871C0.174673 21.4532 -0.0577167 21.1392 0.0122333 20.8105L0.361206 19.1672C0.41872 18.8955 0.668209 18.7069 0.948009 18.7208C0.993088 18.7231 1.03817 18.7254 1.08325 18.7269ZM5.9914 2.13131L6.37069 0.441811C6.42898 0.18396 6.65981 0 6.92718 0H9.23786C9.60238 0 9.87285 0.334052 9.79435 0.686577L9.41507 2.37608C9.35755 2.63393 9.12594 2.81789 8.85857 2.81789H6.54789C6.18338 2.81789 5.9129 2.48384 5.9914 2.13131ZM12.126 12.019V12.2121V12.5254C12.126 13.2474 12.353 13.8339 12.8069 14.2834C13.2608 14.7329 13.9579 14.9577 14.8991 14.9577C15.2396 14.9577 15.5435 14.9061 15.8108 14.8007C16.0782 14.6968 16.3137 14.5644 16.5165 14.4035C16.7186 14.2434 16.8974 14.0587 17.0513 13.8501C17.143 13.7269 17.2293 13.6061 17.3124 13.4883C17.4181 13.3367 17.5922 13.2482 17.7788 13.2482H20.0599C20.4827 13.2482 20.7578 13.6892 20.5713 14.0648C20.384 14.442 20.1796 14.7884 19.9581 15.1032C19.585 15.6327 19.1397 16.0784 18.6205 16.4401C18.1013 16.8011 17.4974 17.0705 16.8088 17.2468C16.1194 17.4231 15.3212 17.5116 14.4126 17.5116C13.5693 17.5116 12.8038 17.3992 12.1144 17.1744C11.4242 16.9497 10.8374 16.6087 10.3508 16.1507C9.8643 15.6928 9.48735 15.127 9.21998 14.4528C8.95184 13.7777 8.81894 12.9919 8.81894 12.0921C8.81894 11.0961 8.9806 10.137 9.30548 9.21338C9.62958 8.2905 10.0874 7.47153 10.6796 6.75648C11.2703 6.04219 11.997 5.47184 12.8558 5.04619C13.7147 4.62054 14.68 4.40733 15.7502 4.40733C16.6254 4.40733 17.4243 4.52048 18.1456 4.74447C18.8669 4.96999 19.4832 5.3102 19.9946 5.76817C20.5052 6.22615 20.9024 6.7965 21.1861 7.47846C21.4698 8.16119 21.612 8.95168 21.612 9.85146C21.612 10.3156 21.5747 10.802 21.4993 11.3124C21.4581 11.5918 21.2187 11.8019 20.9335 11.8019H12.1509C12.1338 11.8827 12.126 11.9551 12.126 12.019ZM18.1938 8.68305C18.1363 8.36978 18.0275 8.08499 17.865 7.82791C17.7026 7.57082 17.4679 7.36608 17.1601 7.21368C16.8515 7.06128 16.4458 6.98508 15.9437 6.98508C15.4572 6.98508 15.0274 7.05743 14.6551 7.20137C14.282 7.34607 13.9579 7.5385 13.682 7.77941C13.4061 8.02033 13.1753 8.30128 12.9887 8.62224C12.8022 8.94398 12.6444 9.28111 12.5146 9.63364H18.2785C18.2793 9.31344 18.2505 8.99632 18.1938 8.68305ZM29.985 5.43643L29.7138 6.59638C29.6539 6.85192 29.4239 7.03357 29.1588 7.03357H27.1552L25.8657 13.2235C25.8331 13.3521 25.809 13.4683 25.7927 13.573C25.7764 13.6777 25.7678 13.7531 25.7678 13.8024C25.7678 14.0271 25.8043 14.1995 25.8774 14.3196C25.9505 14.4404 26.0437 14.5328 26.1572 14.5975C26.2707 14.6614 26.3966 14.6975 26.5342 14.7052C26.6717 14.7137 26.8054 14.7168 26.9352 14.7168C27.0984 14.7168 27.2593 14.7129 27.4202 14.706C27.7979 14.6891 28.0909 15.0247 28.0101 15.3895L27.6821 16.8643C27.6285 17.1052 27.4225 17.2853 27.1738 17.3053C26.9562 17.323 26.7386 17.3392 26.5217 17.3538C26.165 17.3784 25.8005 17.39 25.4274 17.39C25.0225 17.39 24.6206 17.3538 24.2235 17.2814C23.8263 17.2091 23.4696 17.0813 23.154 16.8966C22.8377 16.7118 22.5859 16.4586 22.3993 16.1376C22.2128 15.8167 22.1281 15.3995 22.1444 14.8853C22.1444 14.7252 22.16 14.5444 22.1926 14.3435C22.2245 14.1433 22.2657 13.9309 22.3146 13.7054L23.7253 7.03357H22.1802C21.8133 7.03357 21.5421 6.69567 21.6252 6.3416L21.8965 5.18166C21.9563 4.92612 22.1864 4.74447 22.4514 4.74447H24.2118L24.8973 1.41472C24.951 1.15148 25.1849 0.962902 25.4554 0.962902H27.7466C28.1073 0.962902 28.377 1.29003 28.3047 1.63947L27.6658 4.7437H29.4301C29.7962 4.74524 30.0674 5.08314 29.985 5.43643Z" fill="#FF6200"/>
    </g>
    <defs>
        <clipPath id="clip0">
            <rect width="30" height="22" fill="white"/>
        </clipPath>
    </defs>
</svg>
