<svg width="51" height="50" viewBox="0 0 51 50" fill="none" xmlns="http://www.w3.org/2000/svg">
<g filter="url(#filter0_d)">
<rect x="5.5" y="4" width="40" height="40" rx="20" fill="white"/>
<path fill-rule="evenodd" clip-rule="evenodd" d="M18.5549 31.5191H21.2802C22.3645 31.5191 23.2436 30.6448 23.2436 29.5665V22.776C23.2436 20.3571 25.2363 18.3753 27.6685 18.3753H38.3352C36.4304 12.1968 30.7161 8.0001 24.2399 8.0001C16.0934 7.97095 9.5 14.5575 9.5 22.6303V25.3115C9.5 29.9745 11.7564 34.3752 15.5366 37.1439C15.6832 37.2313 15.8297 37.2896 16.0055 37.2896C16.4744 37.2896 16.826 36.9108 16.826 36.4736V33.2386C16.826 32.306 17.6172 31.5191 18.5549 31.5191Z" fill="#FF5555"/>
<path fill-rule="evenodd" clip-rule="evenodd" d="M21.2802 31.5192H18.5549C17.5879 31.5192 16.826 32.3061 16.826 33.2387V36.5028C16.826 36.9691 16.4744 37.3188 16.0055 37.3188C15.8297 37.3188 15.6831 37.2605 15.5366 37.1731C18.0568 39.0092 21.1044 40 24.2399 40H29.2509C33.5879 40 37.0751 36.5028 37.0751 32.2187V20.6486H27.6978C25.2656 20.6486 23.2729 22.6303 23.2729 25.0493V29.5957C23.2436 30.6449 22.3645 31.5192 21.2802 31.5192Z" fill="url(#paint0_linear)"/>
<path fill-rule="evenodd" clip-rule="evenodd" d="M18.5549 31.5191H21.2802C22.3645 31.5191 23.2436 30.6448 23.2436 29.5665V22.776C23.2436 20.3571 25.2363 18.3753 27.6685 18.3753H38.3352C36.4304 12.1968 30.7161 8.0001 24.2399 8.0001C16.0934 7.97095 9.5 14.5575 9.5 22.6303V25.3115C9.5 29.9745 11.7564 34.3752 15.5366 37.1439C15.6832 37.2313 15.8297 37.2896 16.0055 37.2896C16.4744 37.2896 16.826 36.9108 16.826 36.4736V33.2386C16.826 32.306 17.6172 31.5191 18.5549 31.5191Z" fill="url(#paint1_radial)"/>
<path fill-rule="evenodd" clip-rule="evenodd" d="M23.2437 22.776V25.0493C23.2437 22.6303 25.2363 20.6485 27.6686 20.6485H41.2363C41.3829 20.6485 41.5001 20.532 41.5001 20.3571C41.5001 20.2697 41.4415 20.1822 41.3829 20.1239L38.3059 18.3753H27.6686C25.2363 18.3462 23.2437 20.328 23.2437 22.776Z" fill="#EC1616"/>
<path fill-rule="evenodd" clip-rule="evenodd" d="M23.2437 22.776V25.0493C23.2437 22.6303 25.2363 20.6485 27.6686 20.6485H41.2363C41.3829 20.6485 41.5001 20.532 41.5001 20.3571C41.5001 20.2697 41.4415 20.1822 41.3829 20.1239L38.3059 18.3753H27.6686C25.2363 18.3462 23.2437 20.328 23.2437 22.776Z" fill="url(#paint2_linear)"/>
<path d="M37.0751 21.29V20.6486H27.6979C25.2656 20.6486 23.2729 22.6303 23.2729 25.0493V25.1845C23.5277 23.0014 25.4083 21.29 27.6685 21.29H37.0751Z" fill="url(#paint3_linear)"/>
<path fill-rule="evenodd" clip-rule="evenodd" d="M25.6466 39.9999H23.4488C21.0459 39.9999 19.0825 38.0764 19.0825 35.6575V31.5482H21.2803V35.6866C21.2803 38.0473 23.2437 39.9999 25.6466 39.9999Z" fill="url(#paint4_linear)"/>
<path fill-rule="evenodd" clip-rule="evenodd" d="M30.1887 33.7049L26.4671 32.714C26.3792 33.0346 26.3499 33.3843 26.3499 33.7049C26.3499 35.8324 28.0788 37.5519 30.218 37.5519C31.9762 37.5519 33.5 36.3861 33.9396 34.6958L30.1887 33.7049Z" fill="#7A1D00"/>
<path d="M23.2437 30.1728V30.3826C23.2437 31.4609 24.1228 32.3352 25.207 32.3352H29.6319C30.3352 32.3352 30.9799 31.9564 31.3316 31.3443L32.4744 29.3917C32.6796 29.042 33.0605 28.838 33.4415 28.838C33.8224 28.838 34.1741 29.0711 34.3792 29.3917L35.522 31.3443C35.8491 31.9136 36.4297 32.2811 37.0752 32.3297V23.9709H23.6539C23.4589 24.4018 23.328 24.8646 23.273 25.3356C23.273 25.3373 23.273 25.339 23.273 25.3407V29.8871C23.2703 29.9841 23.2604 30.0795 23.2437 30.1728Z" fill="url(#paint5_linear)"/>
<path fill-rule="evenodd" clip-rule="evenodd" d="M23.6539 23.1841H39.1851V29.5957C39.1851 30.674 38.3059 31.5484 37.2217 31.5484C36.5184 31.5484 35.8737 31.1695 35.522 30.5575L34.3792 28.6048C34.1741 28.2842 33.8224 28.0511 33.4415 28.0511C33.0605 28.0511 32.6796 28.2551 32.4744 28.6048L31.3316 30.5575C30.9799 31.1695 30.3352 31.5484 29.6319 31.5484H25.207C24.1228 31.5484 23.2437 30.674 23.2437 29.5957V25.0493C23.2437 24.4081 23.3902 23.767 23.6539 23.1841Z" fill="#FF5555"/>
<path fill-rule="evenodd" clip-rule="evenodd" d="M35.522 30.5575C35.8737 31.1695 36.5184 31.5484 37.2217 31.5484C38.3059 31.5484 39.185 30.674 39.185 29.5957V23.1841H23.6539C23.3902 23.767 23.2437 24.4081 23.2437 25.0493V29.5957C23.2437 30.674 24.1228 31.5484 25.207 31.5484H29.6319C30.3352 31.5484 30.9799 31.1695 31.3316 30.5575L32.4744 28.6048C32.6796 28.2551 33.0605 28.0511 33.4415 28.0511C33.8224 28.0511 34.1741 28.2842 34.3792 28.6048L35.522 30.5575ZM24.2657 24.0584C24.1721 24.3831 24.1228 24.718 24.1228 25.0493V29.5957C24.1228 30.1912 24.6083 30.674 25.207 30.674H29.6319C30.0125 30.674 30.3695 30.4696 30.5683 30.1237L30.57 30.1206L31.7151 28.1643C32.0824 27.538 32.7572 27.1768 33.4415 27.1768C34.1848 27.1768 34.7906 27.6193 35.1209 28.1354L35.1302 28.15L36.2836 30.1206L36.2853 30.1237C36.4841 30.4696 36.8411 30.674 37.2217 30.674C37.8204 30.674 38.3059 30.1912 38.3059 29.5957V24.0584H24.2657Z" fill="white"/>
<path opacity="0.3" d="M32.5625 24.0874L28.7822 30.6156H29.3097L33.0899 24.0874H32.5625ZM28.4599 24.0874L24.7383 30.5282C24.8848 30.6156 25.0313 30.6448 25.2071 30.6448H27.5222L31.3024 24.1165H28.4599V24.0874ZM37.2218 24.0874L35.024 27.9052C35.0826 27.9927 35.1412 28.051 35.1998 28.1384L35.5808 28.7796L38.2767 24.1457V24.0874H37.2218Z" fill="white"/>
<path fill-rule="evenodd" clip-rule="evenodd" d="M19.1996 19.1913H18.2912C16.2985 19.1913 14.6575 20.8233 14.6575 22.8051V27.8178C14.6575 29.7996 16.2985 31.4317 18.2912 31.4317H19.3754C17.3827 31.4317 15.7417 29.7996 15.7417 27.8178V22.8051C15.7124 20.8816 17.2655 19.2787 19.1996 19.1913Z" fill="#EB4E27"/>
<path fill-rule="evenodd" clip-rule="evenodd" d="M31.9175 37.1731C31.2435 36.0073 29.9834 35.2205 28.5475 35.2205C27.9322 35.2205 27.3461 35.3662 26.8186 35.6285C27.4926 36.7942 28.7527 37.5811 30.1886 37.5811C30.804 37.552 31.39 37.4062 31.9175 37.1731Z" fill="#FF5555"/>
</g>
<defs>
<filter id="filter0_d" x="0.5" y="0" width="50" height="50" filterUnits="userSpaceOnUse" color-interpolation-filters="sRGB">
<feFlood flood-opacity="0" result="BackgroundImageFix"/>
<feColorMatrix in="SourceAlpha" type="matrix" values="0 0 0 0 0 0 0 0 0 0 0 0 0 0 0 0 0 0 127 0"/>
<feOffset dy="1"/>
<feGaussianBlur stdDeviation="2.5"/>
<feColorMatrix type="matrix" values="0 0 0 0 0 0 0 0 0 0 0 0 0 0 0 0 0 0 0.2 0"/>
<feBlend mode="normal" in2="BackgroundImageFix" result="effect1_dropShadow"/>
<feBlend mode="normal" in="SourceGraphic" in2="effect1_dropShadow" result="shape"/>
</filter>
<linearGradient id="paint0_linear" x1="26.3059" y1="20.6486" x2="26.3059" y2="40" gradientUnits="userSpaceOnUse">
<stop stop-color="#FFDBCE"/>
<stop offset="0.567708" stop-color="#FFF6F3"/>
</linearGradient>
<radialGradient id="paint1_radial" cx="0" cy="0" r="1" gradientUnits="userSpaceOnUse" gradientTransform="translate(20.7099 19.4203) scale(20.4054 20.2938)">
<stop stop-color="#FFC9B6"/>
<stop offset="0.296875" stop-color="#FF7B55"/>
<stop offset="1" stop-color="#FF3000"/>
</radialGradient>
<linearGradient id="paint2_linear" x1="23.2477" y1="21.6998" x2="41.5294" y2="21.6998" gradientUnits="userSpaceOnUse">
<stop stop-color="#FFBA9F"/>
<stop offset="1" stop-color="#FF5A2F"/>
</linearGradient>
<linearGradient id="paint3_linear" x1="23.2476" y1="22.3413" x2="37.6319" y2="22.3413" gradientUnits="userSpaceOnUse">
<stop stop-opacity="0"/>
<stop offset="1" stop-opacity="0.21"/>
</linearGradient>
<linearGradient id="paint4_linear" x1="22.3621" y1="39.9861" x2="22.3621" y2="31.5275" gradientUnits="userSpaceOnUse">
<stop stop-color="#FF592E"/>
<stop offset="1" stop-color="#F93D00"/>
</linearGradient>
<linearGradient id="paint5_linear" x1="23.2183" y1="27.0924" x2="37.6332" y2="27.0924" gradientUnits="userSpaceOnUse">
<stop stop-opacity="0"/>
<stop offset="1" stop-opacity="0.21"/>
</linearGradient>
</defs>
</svg>
