<svg width="38" height="40" viewBox="0 0 38 40" fill="none" xmlns="http://www.w3.org/2000/svg">
    <g filter="url(#filter0_d)">
        <ellipse cx="19" cy="18" rx="12" ry="13" fill="black" fill-opacity="0.01"/>
    </g>
    <path d="M19.9992 23.959C26.1591 23.4512 31 18.2909 31 12C31 5.37258 25.6274 0 19 0C12.3726 0 7 5.37258 7 12C7 18.2909 11.8409 23.4512 18.0008 23.959C18.0003 23.9726 18 23.9863 18 24V35C18 35.5523 18.4477 36 19 36C19.5523 36 20 35.5523 20 35V24C20 23.9863 19.9997 23.9726 19.9992 23.959Z" fill="#0C0C0C"/>
    <circle cx="19" cy="12" r="5" fill="#45B874"/>
    <defs>
        <filter id="filter0_d" x="0" y="0" width="38" height="40" filterUnits="userSpaceOnUse" color-interpolation-filters="sRGB">
            <feFlood flood-opacity="0" result="BackgroundImageFix"/>
            <feColorMatrix in="SourceAlpha" type="matrix" values="0 0 0 0 0 0 0 0 0 0 0 0 0 0 0 0 0 0 127 0" result="hardAlpha"/>
            <feOffset dy="2"/>
            <feGaussianBlur stdDeviation="3.5"/>
            <feColorMatrix type="matrix" values="0 0 0 0 0 0 0 0 0 0 0 0 0 0 0 0 0 0 0.3 0"/>
            <feBlend mode="normal" in2="BackgroundImageFix" result="effect1_dropShadow"/>
            <feBlend mode="normal" in="SourceGraphic" in2="effect1_dropShadow" result="shape"/>
        </filter>
    </defs>
</svg>
