<svg width="120" height="120" viewBox="0 0 120 120" fill="none" xmlns="http://www.w3.org/2000/svg">
    <path fill-rule="evenodd" clip-rule="evenodd" d="M60 105C88.8787 105 112.5 81.4527 112.5 52.5C112.5 23.6213 88.9527 0 60 0C31.0472 0 7.5 23.5472 7.5 52.5C7.5 81.3787 31.0472 105 60 105Z" fill="url(#paint0_linear)"/>
    <path d="M25.9261 57.0012V112.5C25.9261 116.642 29.284 120 33.4261 120H86.625C90.7671 120 94.125 116.66 94.125 112.518C94.125 99.7972 94.125 73.714 94.125 57.038C93.8949 57.0842 93.6825 57.1904 93.5112 57.3449L92.4242 58.388C92.3047 58.5018 92.163 58.5918 92.0072 58.6528C91.8514 58.7139 91.6845 58.7449 91.5162 58.7439C91.3532 58.7479 91.1912 58.7181 91.0411 58.6567C90.8911 58.5953 90.7566 58.5037 90.6466 58.388L89.5596 57.3449C89.3218 57.1344 89.0134 57.0125 88.6901 57.0012C88.3537 57.0048 88.0304 57.1271 87.7821 57.3449L86.6951 58.388C86.5863 58.505 86.452 58.5975 86.3017 58.659C86.1514 58.7206 85.9888 58.7495 85.8255 58.7439C85.6572 58.7449 85.4904 58.7139 85.3346 58.6528C85.1788 58.5918 85.0371 58.5018 84.9176 58.388L83.8306 57.3449C83.5967 57.1285 83.2858 57.0056 82.961 57.0012C82.626 57.0112 82.305 57.1327 82.0531 57.3449L80.9661 58.388C80.8572 58.505 80.7229 58.5975 80.5726 58.659C80.4223 58.7206 80.2598 58.7495 80.0965 58.7439C79.9334 58.7479 79.7714 58.7181 79.6213 58.6567C79.4713 58.5953 79.3368 58.5037 79.2269 58.388L78.1399 57.3449C77.8891 57.1309 77.5674 57.0092 77.2319 57.0012C76.9071 57.0056 76.5962 57.1285 76.3624 57.3449L75.2754 58.388C75.1559 58.5018 75.0141 58.5918 74.8583 58.6528C74.7025 58.7139 74.5357 58.7449 74.3674 58.7439C74.2044 58.7479 74.0423 58.7181 73.8923 58.6567C73.7423 58.5953 73.6077 58.5037 73.4978 58.388L72.4108 57.3449C72.1724 57.1236 71.8537 57 71.5221 57C71.1904 57 70.8717 57.1236 70.6333 57.3449L69.5463 58.388C69.4349 58.5018 69.3001 58.5922 69.1504 58.6535C69.0007 58.7148 68.8394 58.7456 68.6767 58.7439C68.5084 58.7449 68.3416 58.7139 68.1858 58.6528C68.03 58.5918 67.8883 58.5018 67.7688 58.388L66.6818 57.3449C66.4479 57.1285 66.137 57.0056 65.8122 57.0012C65.4772 57.0112 65.1562 57.1327 64.9042 57.3449L63.8172 58.388C63.7084 58.505 63.5741 58.5975 63.4238 58.659C63.2735 58.7206 63.1109 58.7495 62.9476 58.7439C62.7846 58.7479 62.6226 58.7181 62.4725 58.6567C62.3225 58.5953 62.188 58.5037 62.0781 58.388L60.9527 57.3449C60.7188 57.1285 60.408 57.0056 60.0831 57.0012C59.7583 57.0056 59.4474 57.1285 59.2135 57.3449L58.1266 58.388C57.8884 58.6148 57.5669 58.7426 57.2314 58.7439C57.0662 58.7497 56.9017 58.7208 56.7493 58.6593C56.5969 58.5979 56.4603 58.5053 56.349 58.388L55.262 57.3449C55.0157 57.1318 54.6983 57.0099 54.3669 57.0012C54.042 57.0056 53.7311 57.1285 53.4973 57.3449L52.4103 58.388C52.2908 58.5018 52.1491 58.5918 51.9933 58.6528C51.8375 58.7139 51.6706 58.7449 51.5023 58.7439C51.3394 58.7471 51.1776 58.717 51.0277 58.6556C50.8778 58.5943 50.7432 58.5031 50.6327 58.388L49.5457 57.3449C49.3119 57.1285 49.001 57.0056 48.6761 57.0012C48.3407 57.0092 48.019 57.1309 47.7682 57.3449L46.6812 58.388C46.5713 58.5037 46.4368 58.5953 46.2867 58.6567C46.1367 58.7181 45.9747 58.7479 45.8116 58.7439C45.6433 58.7449 45.4765 58.7139 45.3207 58.6528C45.1649 58.5918 45.0231 58.5018 44.9037 58.388L43.8167 57.3449C43.5828 57.1285 43.2719 57.0056 42.9471 57.0012C42.6223 57.0056 42.3114 57.1285 42.0775 57.3449L40.9521 58.388C40.8422 58.5037 40.7077 58.5953 40.5577 58.6567C40.4076 58.7181 40.2456 58.7479 40.0826 58.7439C39.9193 58.7495 39.7567 58.7206 39.6064 58.659C39.4561 58.5975 39.3218 58.505 39.213 58.388L38.126 57.3449C37.874 57.1327 37.553 57.0112 37.218 57.0012C36.8932 57.0056 36.5823 57.1285 36.3484 57.3449L35.2614 58.388C35.142 58.5018 35.0002 58.5918 34.8444 58.6528C34.6886 58.7139 34.5218 58.7449 34.3535 58.7439C34.1902 58.7495 34.0276 58.7206 33.8773 58.659C33.7271 58.5975 33.5927 58.505 33.4839 58.388L32.3969 57.3449C32.1585 57.1236 31.8398 57 31.5081 57C31.1765 57 30.8578 57.1236 30.6194 57.3449L29.5324 58.388C29.4225 58.5037 29.288 58.5953 29.1379 58.6567C28.9879 58.7181 28.8258 58.7479 28.6628 58.7439C28.4945 58.7449 28.3277 58.7139 28.1718 58.6528C28.016 58.5918 27.8743 58.5018 27.7548 58.388L26.6679 57.3449C26.4496 57.1506 26.1712 57.0299 25.875 57.0012H25.9261Z" fill="url(#paint1_linear)"/>
    <path opacity="0.2" d="M58.7569 80.5771C59.4964 80.5846 60.2213 80.3717 60.8394 79.9656C61.4574 79.5595 61.9404 78.9785 62.2269 78.2967C62.5134 77.6149 62.5903 76.8633 62.4479 76.1376C62.3055 75.4119 61.9502 74.7451 61.4272 74.2222C60.9043 73.6992 60.2375 73.3439 59.5118 73.2015C58.7862 73.0591 58.0345 73.136 57.3527 73.4225C56.6709 73.709 56.09 74.192 55.6838 74.81C55.2777 75.4281 55.0648 76.153 55.0723 76.8925C55.1056 77.8591 55.5045 78.7771 56.1884 79.461C56.8723 80.1449 57.7903 80.5438 58.7569 80.5771Z" fill="#FF2323"/>
    <path opacity="0.2" d="M82.3341 80.5771C83.0736 80.5846 83.7986 80.3717 84.4166 79.9656C85.0346 79.5595 85.5177 78.9785 85.8042 78.2967C86.0907 77.6149 86.1676 76.8633 86.0252 76.1376C85.8828 75.4119 85.5274 74.7451 85.0045 74.2222C84.4816 73.6992 83.8148 73.3439 83.0891 73.2015C82.3634 73.0591 81.6118 73.136 80.93 73.4225C80.2482 73.709 79.6672 74.192 79.2611 74.81C78.8549 75.4281 78.6421 76.153 78.6496 76.8925C78.6496 77.8697 79.0378 78.8069 79.7288 79.4979C80.4198 80.1889 81.3569 80.5771 82.3341 80.5771Z" fill="#FF2323"/>
    <path fill-rule="evenodd" clip-rule="evenodd" d="M58.7949 75.6136C59.4802 75.6136 60.0358 76.1692 60.0358 76.8545C60.0358 82.6799 64.7582 87.4023 70.5835 87.4023C76.4089 87.4023 81.1312 82.6799 81.1312 76.8545C81.1312 76.1692 81.6868 75.6136 82.3722 75.6136C83.0575 75.6136 83.6131 76.1692 83.6131 76.8545C83.6131 84.0506 77.7795 89.8841 70.5835 89.8841C63.3875 89.8841 57.554 84.0506 57.554 76.8545C57.554 76.1692 58.1095 75.6136 58.7949 75.6136Z" fill="url(#paint2_linear)"/>
    <path d="M48.2114 57.0813V120H30.8898C28.1484 120 25.9261 117.949 25.9261 115.418V57.0066C26.2032 57.0407 26.4622 57.1494 26.6679 57.3183L27.7548 58.2813C27.8743 58.3863 28.016 58.4693 28.1718 58.5257C28.3277 58.5821 28.4945 58.6107 28.6628 58.6098C28.8258 58.6134 28.9879 58.586 29.1379 58.5293C29.2879 58.4726 29.4225 58.388 29.5324 58.2813L30.6194 57.3183C30.8578 57.1141 31.1765 57 31.5081 57C31.8398 57 32.1585 57.1141 32.3969 57.3183L33.4839 58.2813C33.5927 58.3892 33.7271 58.4746 33.8773 58.5314C34.0276 58.5882 34.1902 58.615 34.3535 58.6098C34.5218 58.6107 34.6886 58.5821 34.8444 58.5257C35.0002 58.4693 35.142 58.3863 35.2614 58.2813L36.3484 57.3183C36.5823 57.1186 36.8932 57.0052 37.218 57.0011C37.553 57.0104 37.874 57.1225 38.126 57.3183L39.213 58.2813C39.3218 58.3892 39.4561 58.4746 39.6064 58.5314C39.7567 58.5882 39.9193 58.615 40.0826 58.6098C40.2456 58.6134 40.4076 58.586 40.5577 58.5293C40.7077 58.4726 40.8422 58.388 40.9521 58.2813L42.0775 57.3183C42.3114 57.1186 42.6223 57.0052 42.9471 57.0011C43.2719 57.0052 43.5828 57.1186 43.8167 57.3183L44.9037 58.2813C45.0231 58.3863 45.1649 58.4693 45.3207 58.5257C45.4765 58.5821 45.6433 58.6107 45.8116 58.6098C45.9747 58.6134 46.1367 58.586 46.2867 58.5293C46.4368 58.4726 46.5713 58.388 46.6812 58.2813L47.7682 57.3183C47.8993 57.2151 48.0497 57.1351 48.2114 57.0813Z" fill="url(#paint3_linear)"/>
    <path d="M25.9261 57.0066V57.0011H25.875C25.8921 57.0027 25.9092 57.0045 25.9261 57.0066Z" fill="url(#paint4_linear)"/>
    <path d="M37.0431 120H48.2113V57.0813C48.0496 57.1352 47.8992 57.2152 47.7681 57.3184L46.6811 58.2813C46.5712 58.3881 46.4367 58.4727 46.2867 58.5294C46.1366 58.586 45.9746 58.6135 45.8115 58.6099C45.6432 58.6107 45.4764 58.5821 45.3206 58.5258C45.1648 58.4694 45.0231 58.3863 44.9036 58.2813L43.8166 57.3184C43.5827 57.1187 43.2718 57.0052 42.947 57.0012C42.6222 57.0052 42.3113 57.1187 42.0774 57.3184L40.952 58.2813C40.8421 58.3881 40.7076 58.4727 40.5576 58.5294C40.4075 58.586 40.2455 58.6135 40.0825 58.6099C39.9192 58.615 39.7566 58.5883 39.6063 58.5315C39.456 58.4747 39.3217 58.3893 39.2129 58.2813L38.1259 57.3184C37.8739 57.1226 37.5529 57.0104 37.2179 57.0012C37.1591 57.0019 37.1007 57.0062 37.0431 57.014V120Z" fill="url(#paint5_linear)"/>
    <path d="M13.5 118.125C13.5 117.089 14.3395 116.25 15.375 116.25H104.625C105.661 116.25 106.5 117.089 106.5 118.125C106.5 119.161 105.661 120 104.625 120H15.375C14.3395 120 13.5 119.161 13.5 118.125Z" fill="#FF4242" fill-opacity="0.25"/>
    <path d="M68.8974 21.1488C69.1767 20.8642 69.5099 20.6381 69.8775 20.4838C70.2452 20.3295 70.6399 20.25 71.0386 20.25C71.4374 20.25 71.8321 20.3295 72.1998 20.4838C72.5674 20.6381 72.9006 20.8642 73.1799 21.1488C73.7451 21.7227 74.0619 22.4958 74.0619 23.3013C74.0619 24.1068 73.7451 24.8799 73.1799 25.4538L64.5924 34.0113L73.1799 42.6138C73.7451 43.1877 74.0619 43.9608 74.0619 44.7663C74.0619 45.5718 73.7451 46.3449 73.1799 46.9188C72.9006 47.2034 72.5674 47.4295 72.1998 47.5838C71.8321 47.7381 71.4374 47.8176 71.0386 47.8176C70.6399 47.8176 70.2452 47.7381 69.8775 47.5838C69.5099 47.4295 69.1767 47.2034 68.8974 46.9188L60.2874 38.3088L51.6774 46.9188C51.1065 47.4867 50.3334 47.8045 49.5282 47.8024C48.723 47.8003 47.9515 47.4784 47.3837 46.9075C46.8158 46.3367 46.4979 45.5636 46.5 44.7583C46.5021 43.9531 46.824 43.1817 47.3949 42.6138L55.9824 34.0113L47.3949 25.4238C46.828 24.8559 46.5099 24.0861 46.5106 23.2836C46.5113 22.4812 46.8308 21.7119 47.3987 21.145C47.9665 20.5781 48.7364 20.2601 49.5388 20.2608C50.3412 20.2615 51.1105 20.5809 51.6774 21.1488L60.2874 29.7288L68.8974 21.1488Z" fill="url(#paint6_linear)"/>
    <path d="M68.8974 19.6488C69.1767 19.3642 69.5099 19.1381 69.8775 18.9838C70.2452 18.8295 70.6399 18.75 71.0386 18.75C71.4374 18.75 71.8321 18.8295 72.1998 18.9838C72.5674 19.1381 72.9006 19.3642 73.1799 19.6488C73.7451 20.2227 74.0619 20.9958 74.0619 21.8013C74.0619 22.6068 73.7451 23.3799 73.1799 23.9538L64.5924 32.5113L73.1799 41.1138C73.7451 41.6877 74.0619 42.4608 74.0619 43.2663C74.0619 44.0718 73.7451 44.8449 73.1799 45.4188C72.9006 45.7034 72.5674 45.9295 72.1998 46.0838C71.8321 46.2381 71.4374 46.3176 71.0386 46.3176C70.6399 46.3176 70.2452 46.2381 69.8775 46.0838C69.5099 45.9295 69.1767 45.7034 68.8974 45.4188L60.2874 36.8088L51.6774 45.4188C51.1065 45.9867 50.3334 46.3045 49.5282 46.3024C48.723 46.3003 47.9515 45.9784 47.3837 45.4075C46.8158 44.8367 46.4979 44.0636 46.5 43.2583C46.5021 42.4531 46.824 41.6817 47.3949 41.1138L55.9824 32.5113L47.3949 23.9238C46.828 23.3559 46.5099 22.5861 46.5106 21.7836C46.5113 20.9812 46.8308 20.2119 47.3987 19.645C47.9665 19.0781 48.7364 18.7601 49.5388 18.7608C50.3412 18.7615 51.1105 19.0809 51.6774 19.6488L60.2874 28.2288L68.8974 19.6488Z" fill="white"/>
    <defs>
        <linearGradient id="paint0_linear" x1="63.7725" y1="4.64203e-07" x2="27.3614" y2="112.159" gradientUnits="userSpaceOnUse">
            <stop stop-color="#FF7A7A"/>
            <stop offset="0.98" stop-color="#FF1515"/>
        </linearGradient>
        <linearGradient id="paint1_linear" x1="94.125" y1="120" x2="94.125" y2="59.625" gradientUnits="userSpaceOnUse">
            <stop stop-color="#FFCACA"/>
            <stop offset="1" stop-color="white"/>
        </linearGradient>
        <linearGradient id="paint2_linear" x1="70.5835" y1="75.6136" x2="70.5835" y2="89.8841" gradientUnits="userSpaceOnUse">
            <stop stop-color="#FF5353"/>
            <stop offset="1" stop-color="#FB0D0D"/>
        </linearGradient>
        <linearGradient id="paint3_linear" x1="37.0432" y1="57" x2="37.0432" y2="120" gradientUnits="userSpaceOnUse">
            <stop stop-color="#FF7373"/>
            <stop offset="1" stop-color="#FF2525"/>
        </linearGradient>
        <linearGradient id="paint4_linear" x1="37.0432" y1="57" x2="37.0432" y2="120" gradientUnits="userSpaceOnUse">
            <stop stop-color="#FF7373"/>
            <stop offset="1" stop-color="#FF2525"/>
        </linearGradient>
        <linearGradient id="paint5_linear" x1="37.0431" y1="57.0001" x2="37.0431" y2="120" gradientUnits="userSpaceOnUse">
            <stop stop-color="#E83A3A"/>
            <stop offset="1" stop-color="#E20000"/>
        </linearGradient>
        <linearGradient id="paint6_linear" x1="60.2807" y1="20.2499" x2="60.2806" y2="47.8176" gradientUnits="userSpaceOnUse">
            <stop stop-opacity="0"/>
            <stop offset="1" stop-opacity="0.15"/>
        </linearGradient>
    </defs>
</svg>
